<?xml version="1.0" encoding="UTF-8" standalone="no"?>
<!DOCTYPE svg PUBLIC "-//W3C//DTD SVG 1.1//EN"
 "http://www.w3.org/Graphics/SVG/1.1/DTD/svg11.dtd">
<!-- Generated by graphviz version 12.2.1 (20250203.1708)
 -->
<!-- Title: Immunopipe Pages: 1 -->
<svg width="437pt" height="516pt"
 viewBox="0.00 0.00 436.75 515.50" xmlns="http://www.w3.org/2000/svg" xmlns:xlink="http://www.w3.org/1999/xlink">
<g id="graph0" class="graph" transform="scale(1 1) rotate(0) translate(4 511.5)">
<title>Immunopipe</title>
<polygon fill="white" stroke="none" points="-4,4 -4,-511.5 432.75,-511.5 432.75,4 -4,4"/>
<text text-anchor="middle" x="214.38" y="-490.2" font-family="Helvetica,sans-Serif" font-size="14.00">Immunopipe</text>
<text text-anchor="middle" x="214.38" y="-474.45" font-family="Helvetica,sans-Serif" font-size="14.00"> </text>
<!-- ClusterMarkersOfAllCells -->
<g id="node1" class="node">
<title>ClusterMarkersOfAllCells</title>
<g id="a_node1"><a xlink:title="Markers for clusters of all cells.">
<polygon fill="none" stroke="black" points="151,-252 0,-252 0,-216 151,-216 151,-252"/>
<text text-anchor="middle" x="75.5" y="-229.72" font-family="Helvetica,sans-Serif" font-size="12.00">ClusterMarkersOfAllCells</text>
</a>
</g>
</g>
<!-- SeuratPreparing -->
<g id="node2" class="node">
<title>SeuratPreparing</title>
<g id="a_node2"><a xlink:title="Load, prepare and apply QC to data, using `Seurat`">
<path fill="none" stroke="black" d="M197.38,-396C197.38,-396 117.62,-396 117.62,-396 111.62,-396 105.62,-390 105.62,-384 105.62,-384 105.62,-372 105.62,-372 105.62,-366 111.62,-360 117.62,-360 117.62,-360 197.38,-360 197.38,-360 203.38,-360 209.38,-366 209.38,-372 209.38,-372 209.38,-384 209.38,-384 209.38,-390 203.38,-396 197.38,-396"/>
<text text-anchor="middle" x="157.5" y="-373.73" font-family="Helvetica,sans-Serif" font-size="12.00">SeuratPreparing</text>
</a>
</g>
</g>
<!-- SeuratClusteringOfAllCells -->
<g id="node7" class="node">
<title>SeuratClusteringOfAllCells</title>
<g id="a_node7"><a xlink:title="Cluster all cells, including T cells/non&#45;T cells and B cells/non&#45;Bcells using Seurat.">
<path fill="none" stroke="black" d="M192.5,-324C192.5,-324 56.5,-324 56.5,-324 50.5,-324 44.5,-318 44.5,-312 44.5,-312 44.5,-300 44.5,-300 44.5,-294 50.5,-288 56.5,-288 56.5,-288 192.5,-288 192.5,-288 198.5,-288 204.5,-294 204.5,-300 204.5,-300 204.5,-312 204.5,-312 204.5,-318 198.5,-324 192.5,-324"/>
<text text-anchor="middle" x="124.5" y="-301.73" font-family="Helvetica,sans-Serif" font-size="12.00">SeuratClusteringOfAllCells</text>
</a>
</g>
</g>
<!-- SeuratPreparing&#45;&gt;SeuratClusteringOfAllCells -->
<g id="edge10" class="edge">
<title>SeuratPreparing&#45;&gt;SeuratClusteringOfAllCells</title>
<path fill="none" stroke="black" d="M149.34,-359.7C145.51,-351.56 140.85,-341.69 136.62,-332.7"/>
<polygon fill="black" stroke="black" points="139.15,-331.52 133.21,-325.47 134.09,-333.9 139.15,-331.52"/>
</g>
<!-- ScRepCombiningExpression -->
<g id="node3" class="node">
<title>ScRepCombiningExpression</title>
<path fill="none" stroke="black" d="M387.12,-108C387.12,-108 239.88,-108 239.88,-108 233.88,-108 227.88,-102 227.88,-96 227.88,-96 227.88,-84 227.88,-84 227.88,-78 233.88,-72 239.88,-72 239.88,-72 387.12,-72 387.12,-72 393.12,-72 399.12,-78 399.12,-84 399.12,-84 399.12,-96 399.12,-96 399.12,-102 393.12,-108 387.12,-108"/>
<text text-anchor="middle" x="313.5" y="-85.72" font-family="Helvetica,sans-Serif" font-size="12.00">ScRepCombiningExpression</text>
</g>
<!-- ClonalStats -->
<g id="node5" class="node">
<title>ClonalStats</title>
<polygon fill="none" stroke="black" points="294.62,-36 216.38,-36 216.38,0 294.62,0 294.62,-36"/>
<text text-anchor="middle" x="255.5" y="-13.72" font-family="Helvetica,sans-Serif" font-size="12.00">ClonalStats</text>
</g>
<!-- ScRepCombiningExpression&#45;&gt;ClonalStats -->
<g id="edge7" class="edge">
<title>ScRepCombiningExpression&#45;&gt;ClonalStats</title>
<path fill="none" stroke="black" d="M299.16,-71.7C292.07,-63.14 283.39,-52.66 275.64,-43.3"/>
<polygon fill="black" stroke="black" points="277.9,-41.64 270.64,-37.27 273.59,-45.22 277.9,-41.64"/>
</g>
<!-- SeuratClusterStats -->
<g id="node6" class="node">
<title>SeuratClusterStats</title>
<polygon fill="none" stroke="black" points="428.75,-36 312.25,-36 312.25,0 428.75,0 428.75,-36"/>
<text text-anchor="middle" x="370.5" y="-13.72" font-family="Helvetica,sans-Serif" font-size="12.00">SeuratClusterStats</text>
</g>
<!-- ScRepCombiningExpression&#45;&gt;SeuratClusterStats -->
<g id="edge6" class="edge">
<title>ScRepCombiningExpression&#45;&gt;SeuratClusterStats</title>
<path fill="none" stroke="black" d="M327.59,-71.7C334.56,-63.14 343.09,-52.66 350.71,-43.3"/>
<polygon fill="black" stroke="black" points="352.74,-45.25 355.62,-37.28 348.39,-41.71 352.74,-45.25"/>
</g>
<!-- ClusterMarkers -->
<g id="node4" class="node">
<title>ClusterMarkers</title>
<g id="a_node4"><a xlink:title="Markers for clusters of all or selected T/B cells.">
<polygon fill="none" stroke="black" points="210,-108 113,-108 113,-72 210,-72 210,-108"/>
<text text-anchor="middle" x="161.5" y="-85.72" font-family="Helvetica,sans-Serif" font-size="12.00">ClusterMarkers</text>
</a>
</g>
</g>
<!-- SeuratClusteringOfAllCells&#45;&gt;ClusterMarkersOfAllCells -->
<g id="edge9" class="edge">
<title>SeuratClusteringOfAllCells&#45;&gt;ClusterMarkersOfAllCells</title>
<path fill="none" stroke="black" d="M112.39,-287.7C106.51,-279.3 99.35,-269.07 92.9,-259.86"/>
<polygon fill="black" stroke="black" points="95.22,-258.29 88.34,-253.34 90.63,-261.5 95.22,-258.29"/>
</g>
<!-- TOrBCellSelection -->
<g id="node8" class="node">
<title>TOrBCellSelection</title>
<g id="a_node8"><a xlink:title="Separate T and non&#45;T cells and select T cells; or separate B and non&#45;B cells and select B cells.">
<path fill="none" stroke="black" d="M273.75,-252C273.75,-252 181.25,-252 181.25,-252 175.25,-252 169.25,-246 169.25,-240 169.25,-240 169.25,-228 169.25,-228 169.25,-222 175.25,-216 181.25,-216 181.25,-216 273.75,-216 273.75,-216 279.75,-216 285.75,-222 285.75,-228 285.75,-228 285.75,-240 285.75,-240 285.75,-246 279.75,-252 273.75,-252"/>
<text text-anchor="middle" x="227.5" y="-229.72" font-family="Helvetica,sans-Serif" font-size="12.00">TOrBCellSelection</text>
</a>
</g>
</g>
<!-- SeuratClusteringOfAllCells&#45;&gt;TOrBCellSelection -->
<g id="edge8" class="edge">
<title>SeuratClusteringOfAllCells&#45;&gt;TOrBCellSelection</title>
<path fill="none" stroke="black" d="M150.23,-287.52C163.6,-278.43 180.1,-267.22 194.41,-257.49"/>
<polygon fill="black" stroke="black" points="195.81,-259.92 200.85,-253.11 192.66,-255.29 195.81,-259.92"/>
</g>
<!-- SeuratClustering -->
<g id="node9" class="node">
<title>SeuratClustering</title>
<g id="a_node9"><a xlink:title="Cluster all cells or selected T/B cells selected by `TOrBCellSelection`.">
<path fill="none" stroke="black" d="M268.5,-180C268.5,-180 186.5,-180 186.5,-180 180.5,-180 174.5,-174 174.5,-168 174.5,-168 174.5,-156 174.5,-156 174.5,-150 180.5,-144 186.5,-144 186.5,-144 268.5,-144 268.5,-144 274.5,-144 280.5,-150 280.5,-156 280.5,-156 280.5,-168 280.5,-168 280.5,-174 274.5,-180 268.5,-180"/>
<text text-anchor="middle" x="227.5" y="-157.72" font-family="Helvetica,sans-Serif" font-size="12.00">SeuratClustering</text>
</a>
</g>
</g>
<!-- TOrBCellSelection&#45;&gt;SeuratClustering -->
<g id="edge11" class="edge">
<title>TOrBCellSelection&#45;&gt;SeuratClustering</title>
<path fill="none" stroke="black" d="M227.5,-215.7C227.5,-207.81 227.5,-198.3 227.5,-189.55"/>
<polygon fill="black" stroke="black" points="230.3,-189.62 227.5,-181.62 224.7,-189.62 230.3,-189.62"/>
</g>
<!-- SeuratClustering&#45;&gt;ScRepCombiningExpression -->
<g id="edge5" class="edge">
<title>SeuratClustering&#45;&gt;ScRepCombiningExpression</title>
<path fill="none" stroke="black" d="M248.76,-143.7C259.72,-134.78 273.23,-123.78 285.07,-114.14"/>
<polygon fill="black" stroke="black" points="286.58,-116.52 291.01,-109.3 283.04,-112.18 286.58,-116.52"/>
</g>
<!-- SeuratClustering&#45;&gt;ClusterMarkers -->
<g id="edge3" class="edge">
<title>SeuratClustering&#45;&gt;ClusterMarkers</title>
<path fill="none" stroke="black" d="M211.19,-143.7C202.95,-134.97 192.84,-124.24 183.89,-114.75"/>
<polygon fill="black" stroke="black" points="186.19,-113.11 178.67,-109.21 182.12,-116.95 186.19,-113.11"/>
</g>
<!-- ScRepLoading -->
<g id="node10" class="node">
<title>ScRepLoading</title>
<g id="a_node10"><a xlink:title="Load the single cell TCR/BCR data into a `scRepertoire` compatible object">
<path fill="none" stroke="black" d="M306.62,-324C306.62,-324 234.38,-324 234.38,-324 228.38,-324 222.38,-318 222.38,-312 222.38,-312 222.38,-300 222.38,-300 222.38,-294 228.38,-288 234.38,-288 234.38,-288 306.62,-288 306.62,-288 312.62,-288 318.62,-294 318.62,-300 318.62,-300 318.62,-312 318.62,-312 318.62,-318 312.62,-324 306.62,-324"/>
<text text-anchor="middle" x="270.5" y="-301.73" font-family="Helvetica,sans-Serif" font-size="12.00">ScRepLoading</text>
</a>
</g>
</g>
<!-- ScRepLoading&#45;&gt;ScRepCombiningExpression -->
<g id="edge1" class="edge">
<title>ScRepLoading&#45;&gt;ScRepCombiningExpression</title>
<path fill="none" stroke="black" d="M279.9,-287.84C285.03,-277.71 291.03,-264.46 294.5,-252 307.35,-205.8 311.51,-149.78 312.86,-117.48"/>
<polygon fill="black" stroke="black" points="315.65,-117.86 313.14,-109.77 310.05,-117.66 315.65,-117.86"/>
</g>
<!-- ScRepLoading&#45;&gt;TOrBCellSelection -->
<g id="edge2" class="edge">
<title>ScRepLoading&#45;&gt;TOrBCellSelection</title>
<path fill="none" stroke="black" d="M259.87,-287.7C254.77,-279.39 248.56,-269.28 242.94,-260.14"/>
<polygon fill="black" stroke="black" points="245.37,-258.75 238.8,-253.39 240.6,-261.68 245.37,-258.75"/>
</g>
<!-- SampleInfo -->
<g id="node11" class="node">
<title>SampleInfo</title>
<g id="a_node11"><a xlink:title="List sample information and perform statistics">
<polygon fill="none" stroke="black" points="197.5,-468 128.47,-450 197.5,-432 266.53,-450 197.5,-468"/>
<text text-anchor="middle" x="197.5" y="-445.73" font-family="Helvetica,sans-Serif" font-size="12.00">SampleInfo</text>
</a>
</g>
</g>
<!-- SampleInfo&#45;&gt;SeuratPreparing -->
<g id="edge12" class="edge">
<title>SampleInfo&#45;&gt;SeuratPreparing</title>
<path fill="none" stroke="black" d="M188.82,-433.81C183.87,-425.14 177.53,-414.05 171.85,-404.12"/>
<polygon fill="black" stroke="black" points="174.44,-403 168.04,-397.44 169.58,-405.78 174.44,-403"/>
</g>
<!-- SampleInfo&#45;&gt;ScRepLoading -->
<g id="edge4" class="edge">
<title>SampleInfo&#45;&gt;ScRepLoading</title>
<path fill="none" stroke="black" d="M205.31,-433.8C217.77,-409.58 242.26,-361.94 257.42,-332.45"/>
<polygon fill="black" stroke="black" points="259.75,-334.03 260.92,-325.63 254.77,-331.47 259.75,-334.03"/>
</g>
</g>
</svg>
