<?xml version="1.0" encoding="UTF-8" standalone="no"?>
<!DOCTYPE svg PUBLIC "-//W3C//DTD SVG 1.1//EN"
 "http://www.w3.org/Graphics/SVG/1.1/DTD/svg11.dtd">
<!-- Generated by graphviz version 12.0.0 (20240803.0821)
 -->
<!-- Title: Immunopipe Pages: 1 -->
<svg width="330pt" height="519pt"
 viewBox="0.00 0.00 330.12 518.50" xmlns="http://www.w3.org/2000/svg" xmlns:xlink="http://www.w3.org/1999/xlink">
<g id="graph0" class="graph" transform="scale(1 1) rotate(0) translate(4 514.5)">
<title>Immunopipe</title>
<polygon fill="white" stroke="none" points="-4,4 -4,-514.5 326.12,-514.5 326.12,4 -4,4"/>
<text text-anchor="middle" x="161.06" y="-493.2" font-family="Helvetica,sans-Serif" font-size="14.00">Immunopipe</text>
<text text-anchor="middle" x="161.06" y="-475.95" font-family="Helvetica,sans-Serif" font-size="14.00"> </text>
<!-- ClusterMarkers -->
<g id="node1" class="node">
<title>ClusterMarkers</title>
<g id="a_node1"><a xlink:title="Markers for clusters of all or selected T cells.">
<polygon fill="none" stroke="black" points="122.38,-108 15.62,-108 15.62,-72 122.38,-72 122.38,-108"/>
<text text-anchor="middle" x="69" y="-85.72" font-family="Helvetica,sans-Serif" font-size="12.00">ClusterMarkers</text>
</a>
</g>
</g>
<!-- TCellSelection -->
<g id="node2" class="node">
<title>TCellSelection</title>
<path fill="none" stroke="black" d="M124.62,-252C124.62,-252 49.38,-252 49.38,-252 43.38,-252 37.38,-246 37.38,-240 37.38,-240 37.38,-228 37.38,-228 37.38,-222 43.38,-216 49.38,-216 49.38,-216 124.62,-216 124.62,-216 130.62,-216 136.62,-222 136.62,-228 136.62,-228 136.62,-240 136.62,-240 136.62,-246 130.62,-252 124.62,-252"/>
<text text-anchor="middle" x="87" y="-229.72" font-family="Helvetica,sans-Serif" font-size="12.00">TCellSelection</text>
</g>
<!-- SeuratClustering -->
<g id="node7" class="node">
<title>SeuratClustering</title>
<g id="a_node7"><a xlink:title="Cluster all T cells or selected T cells selected by `TCellSelection`.">
<path fill="none" stroke="black" d="M132.88,-180C132.88,-180 41.12,-180 41.12,-180 35.12,-180 29.12,-174 29.12,-168 29.12,-168 29.12,-156 29.12,-156 29.12,-150 35.12,-144 41.12,-144 41.12,-144 132.88,-144 132.88,-144 138.88,-144 144.88,-150 144.88,-156 144.88,-156 144.88,-168 144.88,-168 144.88,-174 138.88,-180 132.88,-180"/>
<text text-anchor="middle" x="87" y="-157.72" font-family="Helvetica,sans-Serif" font-size="12.00">SeuratClustering</text>
</a>
</g>
</g>
<!-- TCellSelection&#45;&gt;SeuratClustering -->
<g id="edge1" class="edge">
<title>TCellSelection&#45;&gt;SeuratClustering</title>
<path fill="none" stroke="black" d="M87,-215.7C87,-207.81 87,-198.3 87,-189.55"/>
<polygon fill="black" stroke="black" points="89.8,-189.62 87,-181.62 84.2,-189.62 89.8,-189.62"/>
</g>
<!-- IntegratingTCR -->
<g id="node3" class="node">
<title>IntegratingTCR</title>
<g id="a_node3"><a xlink:title="Attach TCR clone information as meta columns to Seurat object">
<path fill="none" stroke="black" d="M233.62,-108C233.62,-108 152.38,-108 152.38,-108 146.38,-108 140.38,-102 140.38,-96 140.38,-96 140.38,-84 140.38,-84 140.38,-78 146.38,-72 152.38,-72 152.38,-72 233.62,-72 233.62,-72 239.62,-72 245.62,-78 245.62,-84 245.62,-84 245.62,-96 245.62,-96 245.62,-102 239.62,-108 233.62,-108"/>
<text text-anchor="middle" x="193" y="-85.72" font-family="Helvetica,sans-Serif" font-size="12.00">IntegratingTCR</text>
</a>
</g>
</g>
<!-- SeuratClusterStats -->
<g id="node4" class="node">
<title>SeuratClusterStats</title>
<polygon fill="none" stroke="black" points="213.88,-36 86.12,-36 86.12,0 213.88,0 213.88,-36"/>
<text text-anchor="middle" x="150" y="-13.72" font-family="Helvetica,sans-Serif" font-size="12.00">SeuratClusterStats</text>
</g>
<!-- IntegratingTCR&#45;&gt;SeuratClusterStats -->
<g id="edge9" class="edge">
<title>IntegratingTCR&#45;&gt;SeuratClusterStats</title>
<path fill="none" stroke="black" d="M182.37,-71.7C177.27,-63.39 171.06,-53.28 165.44,-44.14"/>
<polygon fill="black" stroke="black" points="167.87,-42.75 161.3,-37.39 163.1,-45.68 167.87,-42.75"/>
</g>
<!-- Immunarch -->
<g id="node9" class="node">
<title>Immunarch</title>
<g id="a_node9"><a xlink:title="Exploration of Single&#45;cell and Bulk T&#45;cell/Antibody Immune Repertoires">
<polygon fill="none" stroke="black" points="316.5,-36 231.5,-36 231.5,0 316.5,0 316.5,-36"/>
<text text-anchor="middle" x="274" y="-13.72" font-family="Helvetica,sans-Serif" font-size="12.00">Immunarch</text>
</a>
</g>
</g>
<!-- IntegratingTCR&#45;&gt;Immunarch -->
<g id="edge5" class="edge">
<title>IntegratingTCR&#45;&gt;Immunarch</title>
<path fill="none" stroke="black" d="M213.02,-71.7C223.24,-62.86 235.83,-51.99 246.91,-42.41"/>
<polygon fill="black" stroke="black" points="248.56,-44.69 252.78,-37.34 244.9,-40.45 248.56,-44.69"/>
</g>
<!-- SeuratClusteringOfAllCells -->
<g id="node5" class="node">
<title>SeuratClusteringOfAllCells</title>
<g id="a_node5"><a xlink:title="Cluster all cells, including T cells and non&#45;T cells using Seurat">
<path fill="none" stroke="black" d="M160,-324C160,-324 12,-324 12,-324 6,-324 0,-318 0,-312 0,-312 0,-300 0,-300 0,-294 6,-288 12,-288 12,-288 160,-288 160,-288 166,-288 172,-294 172,-300 172,-300 172,-312 172,-312 172,-318 166,-324 160,-324"/>
<text text-anchor="middle" x="86" y="-301.73" font-family="Helvetica,sans-Serif" font-size="12.00">SeuratClusteringOfAllCells</text>
</a>
</g>
</g>
<!-- SeuratClusteringOfAllCells&#45;&gt;TCellSelection -->
<g id="edge6" class="edge">
<title>SeuratClusteringOfAllCells&#45;&gt;TCellSelection</title>
<path fill="none" stroke="black" d="M86.25,-287.7C86.36,-279.81 86.5,-270.3 86.62,-261.55"/>
<polygon fill="black" stroke="black" points="89.42,-261.66 86.73,-253.62 83.82,-261.58 89.42,-261.66"/>
</g>
<!-- SampleInfo -->
<g id="node6" class="node">
<title>SampleInfo</title>
<g id="a_node6"><a xlink:title="List sample information and perform statistics">
<polygon fill="none" stroke="black" points="171,-468 95.22,-450 171,-432 246.78,-450 171,-468"/>
<text text-anchor="middle" x="171" y="-445.73" font-family="Helvetica,sans-Serif" font-size="12.00">SampleInfo</text>
</a>
</g>
</g>
<!-- ImmunarchLoading -->
<g id="node8" class="node">
<title>ImmunarchLoading</title>
<g id="a_node8"><a xlink:title="Immuarch &#45; Loading data">
<path fill="none" stroke="black" d="M310.12,-324C310.12,-324 201.88,-324 201.88,-324 195.88,-324 189.88,-318 189.88,-312 189.88,-312 189.88,-300 189.88,-300 189.88,-294 195.88,-288 201.88,-288 201.88,-288 310.12,-288 310.12,-288 316.12,-288 322.12,-294 322.12,-300 322.12,-300 322.12,-312 322.12,-312 322.12,-318 316.12,-324 310.12,-324"/>
<text text-anchor="middle" x="256" y="-301.73" font-family="Helvetica,sans-Serif" font-size="12.00">ImmunarchLoading</text>
</a>
</g>
</g>
<!-- SampleInfo&#45;&gt;ImmunarchLoading -->
<g id="edge3" class="edge">
<title>SampleInfo&#45;&gt;ImmunarchLoading</title>
<path fill="none" stroke="black" d="M180.1,-433.8C194.66,-409.48 223.36,-361.53 240.99,-332.07"/>
<polygon fill="black" stroke="black" points="243.17,-333.89 244.87,-325.59 238.36,-331.01 243.17,-333.89"/>
</g>
<!-- SeuratPreparing -->
<g id="node10" class="node">
<title>SeuratPreparing</title>
<g id="a_node10"><a xlink:title="Load, prepare and apply QC to data, using `Seurat`">
<path fill="none" stroke="black" d="M173.38,-396C173.38,-396 84.62,-396 84.62,-396 78.62,-396 72.62,-390 72.62,-384 72.62,-384 72.62,-372 72.62,-372 72.62,-366 78.62,-360 84.62,-360 84.62,-360 173.38,-360 173.38,-360 179.38,-360 185.38,-366 185.38,-372 185.38,-372 185.38,-384 185.38,-384 185.38,-390 179.38,-396 173.38,-396"/>
<text text-anchor="middle" x="129" y="-373.73" font-family="Helvetica,sans-Serif" font-size="12.00">SeuratPreparing</text>
</a>
</g>
</g>
<!-- SampleInfo&#45;&gt;SeuratPreparing -->
<g id="edge8" class="edge">
<title>SampleInfo&#45;&gt;SeuratPreparing</title>
<path fill="none" stroke="black" d="M161.89,-433.81C156.68,-425.14 150.03,-414.05 144.07,-404.12"/>
<polygon fill="black" stroke="black" points="146.57,-402.84 140.05,-397.42 141.77,-405.73 146.57,-402.84"/>
</g>
<!-- SeuratClustering&#45;&gt;ClusterMarkers -->
<g id="edge12" class="edge">
<title>SeuratClustering&#45;&gt;ClusterMarkers</title>
<path fill="none" stroke="black" d="M82.55,-143.7C80.5,-135.73 78.03,-126.1 75.75,-117.26"/>
<polygon fill="black" stroke="black" points="78.48,-116.62 73.78,-109.57 73.06,-118.02 78.48,-116.62"/>
</g>
<!-- SeuratClustering&#45;&gt;IntegratingTCR -->
<g id="edge11" class="edge">
<title>SeuratClustering&#45;&gt;IntegratingTCR</title>
<path fill="none" stroke="black" d="M113.47,-143.52C127.24,-134.43 144.22,-123.22 158.95,-113.49"/>
<polygon fill="black" stroke="black" points="160.47,-115.84 165.6,-109.09 157.38,-111.17 160.47,-115.84"/>
</g>
<!-- ImmunarchLoading&#45;&gt;TCellSelection -->
<g id="edge2" class="edge">
<title>ImmunarchLoading&#45;&gt;TCellSelection</title>
<path fill="none" stroke="black" d="M213.79,-287.52C190.72,-277.96 161.97,-266.05 137.69,-256"/>
<polygon fill="black" stroke="black" points="138.83,-253.44 130.36,-252.96 136.68,-258.61 138.83,-253.44"/>
</g>
<!-- ImmunarchLoading&#45;&gt;IntegratingTCR -->
<g id="edge4" class="edge">
<title>ImmunarchLoading&#45;&gt;IntegratingTCR</title>
<path fill="none" stroke="black" d="M250.95,-287.85C239.96,-250.52 213.81,-161.69 200.73,-117.26"/>
<polygon fill="black" stroke="black" points="203.45,-116.57 198.5,-109.68 198.07,-118.15 203.45,-116.57"/>
</g>
<!-- ImmunarchLoading&#45;&gt;Immunarch -->
<g id="edge7" class="edge">
<title>ImmunarchLoading&#45;&gt;Immunarch</title>
<path fill="none" stroke="black" d="M257.1,-287.54C260.14,-239.16 268.7,-103.15 272.34,-45.43"/>
<polygon fill="black" stroke="black" points="275.11,-45.9 272.82,-37.74 269.52,-45.55 275.11,-45.9"/>
</g>
<!-- SeuratPreparing&#45;&gt;SeuratClusteringOfAllCells -->
<g id="edge10" class="edge">
<title>SeuratPreparing&#45;&gt;SeuratClusteringOfAllCells</title>
<path fill="none" stroke="black" d="M118.37,-359.7C113.27,-351.39 107.06,-341.28 101.44,-332.14"/>
<polygon fill="black" stroke="black" points="103.87,-330.75 97.3,-325.39 99.1,-333.68 103.87,-330.75"/>
</g>
</g>
</svg>
