<?xml version="1.0" encoding="UTF-8" standalone="no"?>
<!DOCTYPE svg PUBLIC "-//W3C//DTD SVG 1.1//EN"
 "http://www.w3.org/Graphics/SVG/1.1/DTD/svg11.dtd">
<!-- Generated by graphviz version 3.0.0 (20220315.2325)
 -->
<!-- Title: Immunopipe Pages: 1 -->
<svg width="322pt" height="514pt"
 viewBox="0.00 0.00 321.50 514.00" xmlns="http://www.w3.org/2000/svg" xmlns:xlink="http://www.w3.org/1999/xlink">
<g id="graph0" class="graph" transform="scale(1 1) rotate(0) translate(4 510)">
<title>Immunopipe</title>
<polygon fill="white" stroke="transparent" points="-4,4 -4,-510 317.5,-510 317.5,4 -4,4"/>
<text text-anchor="middle" x="156.75" y="-490.8" font-family="Helvetica,sans-Serif" font-size="14.00">Immunopipe</text>
<text text-anchor="middle" x="156.75" y="-475.8" font-family="Helvetica,sans-Serif" font-size="14.00"> </text>
<!-- SeuratPreparing -->
<g id="node1" class="node">
<title>SeuratPreparing</title>
<g id="a_node1"><a xlink:title="Load, prepare and apply QC to data, using `Seurat`">
<path fill="none" stroke="black" d="M159.5,-396C159.5,-396 79.5,-396 79.5,-396 73.5,-396 67.5,-390 67.5,-384 67.5,-384 67.5,-372 67.5,-372 67.5,-366 73.5,-360 79.5,-360 79.5,-360 159.5,-360 159.5,-360 165.5,-360 171.5,-366 171.5,-372 171.5,-372 171.5,-384 171.5,-384 171.5,-390 165.5,-396 159.5,-396"/>
<text text-anchor="middle" x="119.5" y="-374.9" font-family="Helvetica,sans-Serif" font-size="12.00">SeuratPreparing</text>
</a>
</g>
</g>
<!-- SeuratClusteringOfAllCells -->
<g id="node2" class="node">
<title>SeuratClusteringOfAllCells</title>
<g id="a_node2"><a xlink:title="Cluster all cells, including T cells and non&#45;T cells using Seurat">
<path fill="none" stroke="black" d="M149,-324C149,-324 12,-324 12,-324 6,-324 0,-318 0,-312 0,-312 0,-300 0,-300 0,-294 6,-288 12,-288 12,-288 149,-288 149,-288 155,-288 161,-294 161,-300 161,-300 161,-312 161,-312 161,-318 155,-324 149,-324"/>
<text text-anchor="middle" x="80.5" y="-302.9" font-family="Helvetica,sans-Serif" font-size="12.00">SeuratClusteringOfAllCells</text>
</a>
</g>
</g>
<!-- SeuratPreparing&#45;&gt;SeuratClusteringOfAllCells -->
<g id="edge7" class="edge">
<title>SeuratPreparing&#45;&gt;SeuratClusteringOfAllCells</title>
<path fill="none" stroke="black" d="M109.86,-359.7C105.09,-351.14 99.25,-340.66 94.04,-331.3"/>
<polygon fill="black" stroke="black" points="96.37,-329.73 90.03,-324.1 91.48,-332.46 96.37,-329.73"/>
</g>
<!-- TCellSelection -->
<g id="node8" class="node">
<title>TCellSelection</title>
<path fill="none" stroke="black" d="M154.5,-252C154.5,-252 82.5,-252 82.5,-252 76.5,-252 70.5,-246 70.5,-240 70.5,-240 70.5,-228 70.5,-228 70.5,-222 76.5,-216 82.5,-216 82.5,-216 154.5,-216 154.5,-216 160.5,-216 166.5,-222 166.5,-228 166.5,-228 166.5,-240 166.5,-240 166.5,-246 160.5,-252 154.5,-252"/>
<text text-anchor="middle" x="118.5" y="-230.9" font-family="Helvetica,sans-Serif" font-size="12.00">TCellSelection</text>
</g>
<!-- SeuratClusteringOfAllCells&#45;&gt;TCellSelection -->
<g id="edge6" class="edge">
<title>SeuratClusteringOfAllCells&#45;&gt;TCellSelection</title>
<path fill="none" stroke="black" d="M89.89,-287.7C94.54,-279.14 100.23,-268.66 105.31,-259.3"/>
<polygon fill="black" stroke="black" points="107.86,-260.47 109.21,-252.1 102.94,-257.8 107.86,-260.47"/>
</g>
<!-- SampleInfo -->
<g id="node3" class="node">
<title>SampleInfo</title>
<g id="a_node3"><a xlink:title="List sample information and perform statistics">
<polygon fill="none" stroke="black" points="159.5,-468 92.43,-450 159.5,-432 226.57,-450 159.5,-468"/>
<text text-anchor="middle" x="159.5" y="-446.9" font-family="Helvetica,sans-Serif" font-size="12.00">SampleInfo</text>
</a>
</g>
</g>
<!-- SampleInfo&#45;&gt;SeuratPreparing -->
<g id="edge1" class="edge">
<title>SampleInfo&#45;&gt;SeuratPreparing</title>
<path fill="none" stroke="black" d="M151.02,-434.15C145.89,-425.18 139.22,-413.52 133.35,-403.23"/>
<polygon fill="black" stroke="black" points="135.64,-401.6 129.24,-396.04 130.78,-404.38 135.64,-401.6"/>
</g>
<!-- ImmunarchLoading -->
<g id="node7" class="node">
<title>ImmunarchLoading</title>
<g id="a_node7"><a xlink:title="Immuarch &#45; Loading data">
<path fill="none" stroke="black" d="M286,-324C286,-324 191,-324 191,-324 185,-324 179,-318 179,-312 179,-312 179,-300 179,-300 179,-294 185,-288 191,-288 191,-288 286,-288 286,-288 292,-288 298,-294 298,-300 298,-300 298,-312 298,-312 298,-318 292,-324 286,-324"/>
<text text-anchor="middle" x="238.5" y="-302.9" font-family="Helvetica,sans-Serif" font-size="12.00">ImmunarchLoading</text>
</a>
</g>
</g>
<!-- SampleInfo&#45;&gt;ImmunarchLoading -->
<g id="edge2" class="edge">
<title>SampleInfo&#45;&gt;ImmunarchLoading</title>
<path fill="none" stroke="black" d="M167.81,-434.07C181.39,-409.65 208.49,-360.94 224.91,-331.43"/>
<polygon fill="black" stroke="black" points="227.4,-332.72 228.84,-324.37 222.5,-330 227.4,-332.72"/>
</g>
<!-- Immunarch -->
<g id="node4" class="node">
<title>Immunarch</title>
<g id="a_node4"><a xlink:title="Exploration of Single&#45;cell and Bulk T&#45;cell/Antibody Immune Repertoires">
<polygon fill="none" stroke="black" points="313.5,-36 237.5,-36 237.5,0 313.5,0 313.5,-36"/>
<text text-anchor="middle" x="275.5" y="-14.9" font-family="Helvetica,sans-Serif" font-size="12.00">Immunarch</text>
</a>
</g>
</g>
<!-- SeuratClusterStats -->
<g id="node5" class="node">
<title>SeuratClusterStats</title>
<polygon fill="none" stroke="black" points="219,-36 102,-36 102,0 219,0 219,-36"/>
<text text-anchor="middle" x="160.5" y="-14.9" font-family="Helvetica,sans-Serif" font-size="12.00">SeuratClusterStats</text>
</g>
<!-- SeuratClustering -->
<g id="node6" class="node">
<title>SeuratClustering</title>
<g id="a_node6"><a xlink:title="Cluster all T cells or selected T cells selected by `TCellSelection`.">
<path fill="none" stroke="black" d="M160,-180C160,-180 77,-180 77,-180 71,-180 65,-174 65,-168 65,-168 65,-156 65,-156 65,-150 71,-144 77,-144 77,-144 160,-144 160,-144 166,-144 172,-150 172,-156 172,-156 172,-168 172,-168 172,-174 166,-180 160,-180"/>
<text text-anchor="middle" x="118.5" y="-158.9" font-family="Helvetica,sans-Serif" font-size="12.00">SeuratClustering</text>
</a>
</g>
</g>
<!-- IntegratingTCR -->
<g id="node9" class="node">
<title>IntegratingTCR</title>
<g id="a_node9"><a xlink:title="Attach TCR clone information as meta columns to Seurat object">
<path fill="none" stroke="black" d="M235.5,-108C235.5,-108 161.5,-108 161.5,-108 155.5,-108 149.5,-102 149.5,-96 149.5,-96 149.5,-84 149.5,-84 149.5,-78 155.5,-72 161.5,-72 161.5,-72 235.5,-72 235.5,-72 241.5,-72 247.5,-78 247.5,-84 247.5,-84 247.5,-96 247.5,-96 247.5,-102 241.5,-108 235.5,-108"/>
<text text-anchor="middle" x="198.5" y="-86.9" font-family="Helvetica,sans-Serif" font-size="12.00">IntegratingTCR</text>
</a>
</g>
</g>
<!-- SeuratClustering&#45;&gt;IntegratingTCR -->
<g id="edge12" class="edge">
<title>SeuratClustering&#45;&gt;IntegratingTCR</title>
<path fill="none" stroke="black" d="M138.28,-143.7C148.74,-134.54 161.71,-123.19 172.93,-113.38"/>
<polygon fill="black" stroke="black" points="174.78,-115.48 178.95,-108.1 171.09,-111.27 174.78,-115.48"/>
</g>
<!-- ClusterMarkers -->
<g id="node10" class="node">
<title>ClusterMarkers</title>
<g id="a_node10"><a xlink:title="Markers for clusters of all or selected T cells.">
<polygon fill="none" stroke="black" points="131.5,-108 33.5,-108 33.5,-72 131.5,-72 131.5,-108"/>
<text text-anchor="middle" x="82.5" y="-86.9" font-family="Helvetica,sans-Serif" font-size="12.00">ClusterMarkers</text>
</a>
</g>
</g>
<!-- SeuratClustering&#45;&gt;ClusterMarkers -->
<g id="edge5" class="edge">
<title>SeuratClustering&#45;&gt;ClusterMarkers</title>
<path fill="none" stroke="black" d="M109.6,-143.7C105.2,-135.14 99.81,-124.66 95,-115.3"/>
<polygon fill="black" stroke="black" points="97.45,-113.94 91.3,-108.1 92.47,-116.5 97.45,-113.94"/>
</g>
<!-- ImmunarchLoading&#45;&gt;Immunarch -->
<g id="edge3" class="edge">
<title>ImmunarchLoading&#45;&gt;Immunarch</title>
<path fill="none" stroke="black" d="M240.7,-287.97C246.95,-239.7 264.79,-101.8 272.2,-44.47"/>
<polygon fill="black" stroke="black" points="275.01,-44.6 273.26,-36.31 269.46,-43.88 275.01,-44.6"/>
</g>
<!-- ImmunarchLoading&#45;&gt;TCellSelection -->
<g id="edge8" class="edge">
<title>ImmunarchLoading&#45;&gt;TCellSelection</title>
<path fill="none" stroke="black" d="M209.14,-287.88C192.87,-278.38 172.49,-266.5 155.18,-256.4"/>
<polygon fill="black" stroke="black" points="156.29,-253.8 147.97,-252.19 153.47,-258.64 156.29,-253.8"/>
</g>
<!-- ImmunarchLoading&#45;&gt;IntegratingTCR -->
<g id="edge4" class="edge">
<title>ImmunarchLoading&#45;&gt;IntegratingTCR</title>
<path fill="none" stroke="black" d="M235.29,-287.85C228.26,-250.21 211.43,-160.2 203.2,-116.15"/>
<polygon fill="black" stroke="black" points="205.94,-115.58 201.72,-108.23 200.44,-116.61 205.94,-115.58"/>
</g>
<!-- TCellSelection&#45;&gt;SeuratClustering -->
<g id="edge9" class="edge">
<title>TCellSelection&#45;&gt;SeuratClustering</title>
<path fill="none" stroke="black" d="M118.5,-215.7C118.5,-207.39 118.5,-197.28 118.5,-188.14"/>
<polygon fill="black" stroke="black" points="121.3,-188.1 118.5,-180.1 115.7,-188.1 121.3,-188.1"/>
</g>
<!-- IntegratingTCR&#45;&gt;Immunarch -->
<g id="edge11" class="edge">
<title>IntegratingTCR&#45;&gt;Immunarch</title>
<path fill="none" stroke="black" d="M217.53,-71.7C227.51,-62.63 239.86,-51.4 250.58,-41.65"/>
<polygon fill="black" stroke="black" points="252.65,-43.56 256.69,-36.1 248.88,-39.41 252.65,-43.56"/>
</g>
<!-- IntegratingTCR&#45;&gt;SeuratClusterStats -->
<g id="edge10" class="edge">
<title>IntegratingTCR&#45;&gt;SeuratClusterStats</title>
<path fill="none" stroke="black" d="M189.11,-71.7C184.46,-63.14 178.77,-52.66 173.69,-43.3"/>
<polygon fill="black" stroke="black" points="176.06,-41.8 169.79,-36.1 171.14,-44.47 176.06,-41.8"/>
</g>
</g>
</svg>
