<?xml version="1.0" encoding="UTF-8" standalone="no"?>
<!DOCTYPE svg PUBLIC "-//W3C//DTD SVG 1.1//EN"
 "http://www.w3.org/Graphics/SVG/1.1/DTD/svg11.dtd">
<!-- Generated by graphviz version 14.1.2 (20260126.1125)
 -->
<!-- Title: Immunopipe Pages: 1 -->
<svg width="418pt" height="516pt"
 viewBox="0.00 0.00 418.00 516.00" xmlns="http://www.w3.org/2000/svg" xmlns:xlink="http://www.w3.org/1999/xlink">
<g id="graph0" class="graph" transform="scale(1 1) rotate(0) translate(4 511.5)">
<title>Immunopipe</title>
<polygon fill="white" stroke="none" points="-4,4 -4,-511.5 413.62,-511.5 413.62,4 -4,4"/>
<text xml:space="preserve" text-anchor="middle" x="204.81" y="-490.2" font-family="Helvetica,sans-Serif" font-size="14.00">Immunopipe</text>
<text xml:space="preserve" text-anchor="middle" x="204.81" y="-474.45" font-family="Helvetica,sans-Serif" font-size="14.00"> </text>
<!-- ClusterMarkersOfAllCells -->
<g id="node1" class="node">
<title>ClusterMarkersOfAllCells</title>
<g id="a_node1"><a xlink:title="Markers for clusters of all cells.">
<polygon fill="none" stroke="black" points="409.62,-252 258.62,-252 258.62,-216 409.62,-216 409.62,-252"/>
<text xml:space="preserve" text-anchor="middle" x="334.12" y="-229.72" font-family="Helvetica,sans-Serif" font-size="12.00">ClusterMarkersOfAllCells</text>
</a>
</g>
</g>
<!-- SeuratClustering -->
<g id="node2" class="node">
<title>SeuratClustering</title>
<g id="a_node2"><a xlink:title="Cluster all cells or selected T/B cells selected by `TOrBCellSelection`.">
<path fill="none" stroke="black" d="M223.12,-180C223.12,-180 141.12,-180 141.12,-180 135.12,-180 129.12,-174 129.12,-168 129.12,-168 129.12,-156 129.12,-156 129.12,-150 135.12,-144 141.12,-144 141.12,-144 223.12,-144 223.12,-144 229.12,-144 235.12,-150 235.12,-156 235.12,-156 235.12,-168 235.12,-168 235.12,-174 229.12,-180 223.12,-180"/>
<text xml:space="preserve" text-anchor="middle" x="182.12" y="-157.72" font-family="Helvetica,sans-Serif" font-size="12.00">SeuratClustering</text>
</a>
</g>
</g>
<!-- ScRepCombiningExpression -->
<g id="node3" class="node">
<title>ScRepCombiningExpression</title>
<path fill="none" stroke="black" d="M169.75,-108C169.75,-108 22.5,-108 22.5,-108 16.5,-108 10.5,-102 10.5,-96 10.5,-96 10.5,-84 10.5,-84 10.5,-78 16.5,-72 22.5,-72 22.5,-72 169.75,-72 169.75,-72 175.75,-72 181.75,-78 181.75,-84 181.75,-84 181.75,-96 181.75,-96 181.75,-102 175.75,-108 169.75,-108"/>
<text xml:space="preserve" text-anchor="middle" x="96.12" y="-85.72" font-family="Helvetica,sans-Serif" font-size="12.00">ScRepCombiningExpression</text>
</g>
<!-- SeuratClustering&#45;&gt;ScRepCombiningExpression -->
<g id="edge1" class="edge">
<title>SeuratClustering&#45;&gt;ScRepCombiningExpression</title>
<path fill="none" stroke="black" d="M160.87,-143.7C149.91,-134.78 136.4,-123.78 124.56,-114.14"/>
<polygon fill="black" stroke="black" points="126.58,-112.18 118.61,-109.3 123.05,-116.52 126.58,-112.18"/>
</g>
<!-- ClusterMarkers -->
<g id="node10" class="node">
<title>ClusterMarkers</title>
<g id="a_node10"><a xlink:title="Markers for clusters of all or selected T/B cells.">
<polygon fill="none" stroke="black" points="296.62,-108 199.62,-108 199.62,-72 296.62,-72 296.62,-108"/>
<text xml:space="preserve" text-anchor="middle" x="248.12" y="-85.72" font-family="Helvetica,sans-Serif" font-size="12.00">ClusterMarkers</text>
</a>
</g>
</g>
<!-- SeuratClustering&#45;&gt;ClusterMarkers -->
<g id="edge12" class="edge">
<title>SeuratClustering&#45;&gt;ClusterMarkers</title>
<path fill="none" stroke="black" d="M198.44,-143.7C206.67,-134.97 216.78,-124.24 225.73,-114.75"/>
<polygon fill="black" stroke="black" points="227.51,-116.95 230.96,-109.21 223.43,-113.11 227.51,-116.95"/>
</g>
<!-- ClonalStats -->
<g id="node8" class="node">
<title>ClonalStats</title>
<polygon fill="none" stroke="black" points="78.25,-36 0,-36 0,0 78.25,0 78.25,-36"/>
<text xml:space="preserve" text-anchor="middle" x="39.12" y="-13.72" font-family="Helvetica,sans-Serif" font-size="12.00">ClonalStats</text>
</g>
<!-- ScRepCombiningExpression&#45;&gt;ClonalStats -->
<g id="edge6" class="edge">
<title>ScRepCombiningExpression&#45;&gt;ClonalStats</title>
<path fill="none" stroke="black" d="M82.04,-71.7C75.06,-63.14 66.53,-52.66 58.92,-43.3"/>
<polygon fill="black" stroke="black" points="61.23,-41.71 54.01,-37.28 56.89,-45.25 61.23,-41.71"/>
</g>
<!-- SeuratClusterStats -->
<g id="node11" class="node">
<title>SeuratClusterStats</title>
<polygon fill="none" stroke="black" points="212.38,-36 95.88,-36 95.88,0 212.38,0 212.38,-36"/>
<text xml:space="preserve" text-anchor="middle" x="154.12" y="-13.72" font-family="Helvetica,sans-Serif" font-size="12.00">SeuratClusterStats</text>
</g>
<!-- ScRepCombiningExpression&#45;&gt;SeuratClusterStats -->
<g id="edge9" class="edge">
<title>ScRepCombiningExpression&#45;&gt;SeuratClusterStats</title>
<path fill="none" stroke="black" d="M110.46,-71.7C117.56,-63.14 126.24,-52.66 133.99,-43.3"/>
<polygon fill="black" stroke="black" points="136.04,-45.22 138.99,-37.27 131.73,-41.64 136.04,-45.22"/>
</g>
<!-- ScRepLoading -->
<g id="node4" class="node">
<title>ScRepLoading</title>
<g id="a_node4"><a xlink:title="Load the single cell TCR/BCR data into a `scRepertoire` compatible object">
<path fill="none" stroke="black" d="M175.25,-324C175.25,-324 103,-324 103,-324 97,-324 91,-318 91,-312 91,-312 91,-300 91,-300 91,-294 97,-288 103,-288 103,-288 175.25,-288 175.25,-288 181.25,-288 187.25,-294 187.25,-300 187.25,-300 187.25,-312 187.25,-312 187.25,-318 181.25,-324 175.25,-324"/>
<text xml:space="preserve" text-anchor="middle" x="139.12" y="-301.73" font-family="Helvetica,sans-Serif" font-size="12.00">ScRepLoading</text>
</a>
</g>
</g>
<!-- ScRepLoading&#45;&gt;ScRepCombiningExpression -->
<g id="edge11" class="edge">
<title>ScRepLoading&#45;&gt;ScRepCombiningExpression</title>
<path fill="none" stroke="black" d="M129.72,-287.84C124.59,-277.71 118.59,-264.46 115.12,-252 102.27,-205.8 98.11,-149.78 96.77,-117.48"/>
<polygon fill="black" stroke="black" points="99.57,-117.66 96.49,-109.77 93.98,-117.86 99.57,-117.66"/>
</g>
<!-- TOrBCellSelection -->
<g id="node5" class="node">
<title>TOrBCellSelection</title>
<g id="a_node5"><a xlink:title="Separate T and non&#45;T cells and select T cells; or separate B and non&#45;B cells and select B cells.">
<path fill="none" stroke="black" d="M228.38,-252C228.38,-252 135.88,-252 135.88,-252 129.88,-252 123.88,-246 123.88,-240 123.88,-240 123.88,-228 123.88,-228 123.88,-222 129.88,-216 135.88,-216 135.88,-216 228.38,-216 228.38,-216 234.38,-216 240.38,-222 240.38,-228 240.38,-228 240.38,-240 240.38,-240 240.38,-246 234.38,-252 228.38,-252"/>
<text xml:space="preserve" text-anchor="middle" x="182.12" y="-229.72" font-family="Helvetica,sans-Serif" font-size="12.00">TOrBCellSelection</text>
</a>
</g>
</g>
<!-- ScRepLoading&#45;&gt;TOrBCellSelection -->
<g id="edge4" class="edge">
<title>ScRepLoading&#45;&gt;TOrBCellSelection</title>
<path fill="none" stroke="black" d="M149.75,-287.7C154.86,-279.39 161.07,-269.28 166.68,-260.14"/>
<polygon fill="black" stroke="black" points="169.02,-261.68 170.83,-253.39 164.25,-258.75 169.02,-261.68"/>
</g>
<!-- TOrBCellSelection&#45;&gt;SeuratClustering -->
<g id="edge5" class="edge">
<title>TOrBCellSelection&#45;&gt;SeuratClustering</title>
<path fill="none" stroke="black" d="M182.12,-215.7C182.12,-207.81 182.12,-198.3 182.12,-189.55"/>
<polygon fill="black" stroke="black" points="184.93,-189.62 182.13,-181.62 179.33,-189.62 184.93,-189.62"/>
</g>
<!-- SeuratPreparing -->
<g id="node6" class="node">
<title>SeuratPreparing</title>
<g id="a_node6"><a xlink:title="Load, prepare and apply QC to data, using `Seurat`">
<path fill="none" stroke="black" d="M308,-396C308,-396 228.25,-396 228.25,-396 222.25,-396 216.25,-390 216.25,-384 216.25,-384 216.25,-372 216.25,-372 216.25,-366 222.25,-360 228.25,-360 228.25,-360 308,-360 308,-360 314,-360 320,-366 320,-372 320,-372 320,-384 320,-384 320,-390 314,-396 308,-396"/>
<text xml:space="preserve" text-anchor="middle" x="268.12" y="-373.73" font-family="Helvetica,sans-Serif" font-size="12.00">SeuratPreparing</text>
</a>
</g>
</g>
<!-- SeuratClusteringOfAllCells -->
<g id="node9" class="node">
<title>SeuratClusteringOfAllCells</title>
<g id="a_node9"><a xlink:title="Cluster all cells, including T cells/non&#45;T cells and B cells/non&#45;Bcells using Seurat.">
<path fill="none" stroke="black" d="M353.12,-324C353.12,-324 217.12,-324 217.12,-324 211.12,-324 205.12,-318 205.12,-312 205.12,-312 205.12,-300 205.12,-300 205.12,-294 211.12,-288 217.12,-288 217.12,-288 353.12,-288 353.12,-288 359.12,-288 365.12,-294 365.12,-300 365.12,-300 365.12,-312 365.12,-312 365.12,-318 359.12,-324 353.12,-324"/>
<text xml:space="preserve" text-anchor="middle" x="285.12" y="-301.73" font-family="Helvetica,sans-Serif" font-size="12.00">SeuratClusteringOfAllCells</text>
</a>
</g>
</g>
<!-- SeuratPreparing&#45;&gt;SeuratClusteringOfAllCells -->
<g id="edge2" class="edge">
<title>SeuratPreparing&#45;&gt;SeuratClusteringOfAllCells</title>
<path fill="none" stroke="black" d="M272.33,-359.7C274.26,-351.73 276.6,-342.1 278.75,-333.26"/>
<polygon fill="black" stroke="black" points="281.45,-334.01 280.61,-325.58 276,-332.69 281.45,-334.01"/>
</g>
<!-- SampleInfo -->
<g id="node7" class="node">
<title>SampleInfo</title>
<g id="a_node7"><a xlink:title="List sample information and perform statistics">
<polygon fill="none" stroke="black" points="212.12,-468 143.09,-450 212.12,-432 281.16,-450 212.12,-468"/>
<text xml:space="preserve" text-anchor="middle" x="212.12" y="-445.73" font-family="Helvetica,sans-Serif" font-size="12.00">SampleInfo</text>
</a>
</g>
</g>
<!-- SampleInfo&#45;&gt;ScRepLoading -->
<g id="edge8" class="edge">
<title>SampleInfo&#45;&gt;ScRepLoading</title>
<path fill="none" stroke="black" d="M204.31,-433.8C191.86,-409.58 167.37,-361.94 152.21,-332.45"/>
<polygon fill="black" stroke="black" points="154.85,-331.47 148.7,-325.63 149.87,-334.03 154.85,-331.47"/>
</g>
<!-- SampleInfo&#45;&gt;SeuratPreparing -->
<g id="edge3" class="edge">
<title>SampleInfo&#45;&gt;SeuratPreparing</title>
<path fill="none" stroke="black" d="M223.46,-434.83C230.61,-425.9 240.04,-414.11 248.39,-403.67"/>
<polygon fill="black" stroke="black" points="250.47,-405.55 253.29,-397.55 246.1,-402.05 250.47,-405.55"/>
</g>
<!-- SeuratClusteringOfAllCells&#45;&gt;ClusterMarkersOfAllCells -->
<g id="edge10" class="edge">
<title>SeuratClusteringOfAllCells&#45;&gt;ClusterMarkersOfAllCells</title>
<path fill="none" stroke="black" d="M297.24,-287.7C303.11,-279.3 310.28,-269.07 316.72,-259.86"/>
<polygon fill="black" stroke="black" points="318.99,-261.5 321.28,-253.34 314.4,-258.29 318.99,-261.5"/>
</g>
<!-- SeuratClusteringOfAllCells&#45;&gt;TOrBCellSelection -->
<g id="edge7" class="edge">
<title>SeuratClusteringOfAllCells&#45;&gt;TOrBCellSelection</title>
<path fill="none" stroke="black" d="M259.4,-287.52C246.03,-278.43 229.53,-267.22 215.22,-257.49"/>
<polygon fill="black" stroke="black" points="216.96,-255.29 208.77,-253.11 213.82,-259.92 216.96,-255.29"/>
</g>
</g>
</svg>
